<mxfile host="app.diagrams.net" agent="Mozilla/5.0 (Windows NT 10.0; Win64; x64) AppleWebKit/537.36 (KHTML, like Gecko) Chrome/127.0.0.0 Safari/537.36 OPR/113.0.0.0" version="24.7.14">
  <diagram id="prtHgNgQTEPvFCAcTncT" name="Page-1">
    <mxGraphModel dx="1921" dy="888" grid="1" gridSize="10" guides="1" tooltips="1" connect="1" arrows="1" fold="1" page="1" pageScale="1" pageWidth="827" pageHeight="1169" math="0" shadow="0">
      <root>
        <mxCell id="0" />
        <mxCell id="1" parent="0" />
        <mxCell id="Im2IujWXLCtxK3zsTkd3-11" value="" style="shape=table;startSize=0;container=1;collapsible=0;childLayout=tableLayout;" parent="1" vertex="1">
          <mxGeometry x="90" y="40" width="700" height="800" as="geometry" />
        </mxCell>
        <mxCell id="Im2IujWXLCtxK3zsTkd3-12" value="" style="shape=tableRow;horizontal=0;startSize=0;swimlaneHead=0;swimlaneBody=0;strokeColor=inherit;top=0;left=0;bottom=0;right=0;collapsible=0;dropTarget=0;fillColor=none;points=[[0,0.5],[1,0.5]];portConstraint=eastwest;" parent="Im2IujWXLCtxK3zsTkd3-11" vertex="1">
          <mxGeometry width="700" height="44" as="geometry" />
        </mxCell>
        <mxCell id="Im2IujWXLCtxK3zsTkd3-13" value="Customer" style="shape=partialRectangle;html=1;whiteSpace=wrap;connectable=0;strokeColor=inherit;overflow=hidden;fillColor=none;top=0;left=0;bottom=0;right=0;pointerEvents=1;" parent="Im2IujWXLCtxK3zsTkd3-12" vertex="1">
          <mxGeometry width="380" height="44" as="geometry">
            <mxRectangle width="380" height="44" as="alternateBounds" />
          </mxGeometry>
        </mxCell>
        <mxCell id="Im2IujWXLCtxK3zsTkd3-14" value="Receptionist" style="shape=partialRectangle;html=1;whiteSpace=wrap;connectable=0;strokeColor=inherit;overflow=hidden;fillColor=none;top=0;left=0;bottom=0;right=0;pointerEvents=1;" parent="Im2IujWXLCtxK3zsTkd3-12" vertex="1">
          <mxGeometry x="380" width="320" height="44" as="geometry">
            <mxRectangle width="320" height="44" as="alternateBounds" />
          </mxGeometry>
        </mxCell>
        <mxCell id="Im2IujWXLCtxK3zsTkd3-15" value="" style="shape=tableRow;horizontal=0;startSize=0;swimlaneHead=0;swimlaneBody=0;strokeColor=inherit;top=0;left=0;bottom=0;right=0;collapsible=0;dropTarget=0;fillColor=none;points=[[0,0.5],[1,0.5]];portConstraint=eastwest;" parent="Im2IujWXLCtxK3zsTkd3-11" vertex="1">
          <mxGeometry y="44" width="700" height="756" as="geometry" />
        </mxCell>
        <mxCell id="Im2IujWXLCtxK3zsTkd3-16" value="" style="shape=partialRectangle;html=1;whiteSpace=wrap;connectable=0;strokeColor=inherit;overflow=hidden;fillColor=none;top=0;left=0;bottom=0;right=0;pointerEvents=1;" parent="Im2IujWXLCtxK3zsTkd3-15" vertex="1">
          <mxGeometry width="380" height="756" as="geometry">
            <mxRectangle width="380" height="756" as="alternateBounds" />
          </mxGeometry>
        </mxCell>
        <mxCell id="Im2IujWXLCtxK3zsTkd3-17" value="" style="shape=partialRectangle;html=1;whiteSpace=wrap;connectable=0;strokeColor=inherit;overflow=hidden;fillColor=none;top=0;left=0;bottom=0;right=0;pointerEvents=1;" parent="Im2IujWXLCtxK3zsTkd3-15" vertex="1">
          <mxGeometry x="380" width="320" height="756" as="geometry">
            <mxRectangle width="320" height="756" as="alternateBounds" />
          </mxGeometry>
        </mxCell>
        <mxCell id="Im2IujWXLCtxK3zsTkd3-24" value="" style="whiteSpace=wrap;html=1;" parent="Im2IujWXLCtxK3zsTkd3-15" vertex="1">
          <mxGeometry x="700" width="NaN" height="756" as="geometry">
            <mxRectangle width="NaN" height="756" as="alternateBounds" />
          </mxGeometry>
        </mxCell>
        <mxCell id="rvdJIMKBWjh_Pe81FS9a-73" value="" style="ellipse;whiteSpace=wrap;html=1;rounded=1;" parent="Im2IujWXLCtxK3zsTkd3-15" vertex="1">
          <mxGeometry width="NaN" height="756" as="geometry">
            <mxRectangle width="NaN" height="756" as="alternateBounds" />
          </mxGeometry>
        </mxCell>
        <mxCell id="7ic36mAQvmnpquRYO7w3-2" value="" style="edgeStyle=orthogonalEdgeStyle;rounded=0;orthogonalLoop=1;jettySize=auto;html=1;" edge="1" parent="1" source="Im2IujWXLCtxK3zsTkd3-19" target="Im2IujWXLCtxK3zsTkd3-66">
          <mxGeometry relative="1" as="geometry" />
        </mxCell>
        <mxCell id="Im2IujWXLCtxK3zsTkd3-19" value="" style="ellipse;whiteSpace=wrap;html=1;aspect=fixed;" parent="1" vertex="1">
          <mxGeometry x="137.5" y="123.75" width="52.5" height="52.5" as="geometry" />
        </mxCell>
        <mxCell id="7ic36mAQvmnpquRYO7w3-4" style="edgeStyle=orthogonalEdgeStyle;rounded=0;orthogonalLoop=1;jettySize=auto;html=1;exitX=0.5;exitY=1;exitDx=0;exitDy=0;entryX=0.5;entryY=0;entryDx=0;entryDy=0;" edge="1" parent="1" source="Im2IujWXLCtxK3zsTkd3-49" target="7ic36mAQvmnpquRYO7w3-5">
          <mxGeometry relative="1" as="geometry">
            <mxPoint x="420" y="240" as="targetPoint" />
          </mxGeometry>
        </mxCell>
        <mxCell id="Im2IujWXLCtxK3zsTkd3-49" value="Provide Gym Information" style="rounded=1;whiteSpace=wrap;html=1;" parent="1" vertex="1">
          <mxGeometry x="590" y="120" width="110" height="60" as="geometry" />
        </mxCell>
        <mxCell id="Im2IujWXLCtxK3zsTkd3-33" value="Walk-in" style="text;strokeColor=none;align=center;fillColor=none;html=1;verticalAlign=middle;whiteSpace=wrap;rounded=0;" parent="1" vertex="1">
          <mxGeometry x="249.5" y="250" width="60" height="30" as="geometry" />
        </mxCell>
        <mxCell id="Im2IujWXLCtxK3zsTkd3-34" value="Member" style="text;strokeColor=none;align=center;fillColor=none;html=1;verticalAlign=middle;whiteSpace=wrap;rounded=0;" parent="1" vertex="1">
          <mxGeometry x="127" y="250" width="60" height="30" as="geometry" />
        </mxCell>
        <mxCell id="7ic36mAQvmnpquRYO7w3-3" value="" style="edgeStyle=orthogonalEdgeStyle;rounded=0;orthogonalLoop=1;jettySize=auto;html=1;" edge="1" parent="1" source="Im2IujWXLCtxK3zsTkd3-66" target="Im2IujWXLCtxK3zsTkd3-49">
          <mxGeometry relative="1" as="geometry" />
        </mxCell>
        <mxCell id="7ic36mAQvmnpquRYO7w3-21" style="edgeStyle=orthogonalEdgeStyle;rounded=0;orthogonalLoop=1;jettySize=auto;html=1;exitX=0.5;exitY=1;exitDx=0;exitDy=0;entryX=0.5;entryY=0;entryDx=0;entryDy=0;" edge="1" parent="1" source="Im2IujWXLCtxK3zsTkd3-66" target="7ic36mAQvmnpquRYO7w3-20">
          <mxGeometry relative="1" as="geometry">
            <Array as="points">
              <mxPoint x="363" y="200" />
              <mxPoint x="217" y="200" />
            </Array>
          </mxGeometry>
        </mxCell>
        <mxCell id="Im2IujWXLCtxK3zsTkd3-66" value="" style="rhombus;whiteSpace=wrap;html=1;" parent="1" vertex="1">
          <mxGeometry x="326" y="115" width="74" height="70" as="geometry" />
        </mxCell>
        <mxCell id="rvdJIMKBWjh_Pe81FS9a-12" value="Request Gym Access" style="text;strokeColor=none;align=center;fillColor=none;html=1;verticalAlign=middle;whiteSpace=wrap;rounded=0;" parent="1" vertex="1">
          <mxGeometry x="226.5" y="176.25" width="130" height="30" as="geometry" />
        </mxCell>
        <mxCell id="7ic36mAQvmnpquRYO7w3-18" style="edgeStyle=orthogonalEdgeStyle;rounded=0;orthogonalLoop=1;jettySize=auto;html=1;exitX=0.5;exitY=1;exitDx=0;exitDy=0;entryX=1;entryY=0.5;entryDx=0;entryDy=0;" edge="1" parent="1" source="rvdJIMKBWjh_Pe81FS9a-21" target="7ic36mAQvmnpquRYO7w3-7">
          <mxGeometry relative="1" as="geometry">
            <Array as="points">
              <mxPoint x="633" y="300" />
              <mxPoint x="633" y="320" />
              <mxPoint x="510" y="320" />
              <mxPoint x="510" y="510" />
            </Array>
          </mxGeometry>
        </mxCell>
        <mxCell id="rvdJIMKBWjh_Pe81FS9a-21" value="Confirm Credentials" style="rounded=1;whiteSpace=wrap;html=1;" parent="1" vertex="1">
          <mxGeometry x="592.5" y="240" width="105" height="60" as="geometry" />
        </mxCell>
        <mxCell id="rvdJIMKBWjh_Pe81FS9a-24" value="Membership Inquiry" style="text;strokeColor=none;align=center;fillColor=none;html=1;verticalAlign=middle;whiteSpace=wrap;rounded=0;" parent="1" vertex="1">
          <mxGeometry x="470" y="123.75" width="130" height="30" as="geometry" />
        </mxCell>
        <mxCell id="rvdJIMKBWjh_Pe81FS9a-93" style="edgeStyle=orthogonalEdgeStyle;rounded=0;orthogonalLoop=1;jettySize=auto;html=1;exitX=0.5;exitY=1;exitDx=0;exitDy=0;" parent="1" edge="1">
          <mxGeometry relative="1" as="geometry">
            <mxPoint x="675" y="520" as="sourcePoint" />
            <mxPoint x="675" y="520" as="targetPoint" />
          </mxGeometry>
        </mxCell>
        <mxCell id="7ic36mAQvmnpquRYO7w3-9" value="" style="edgeStyle=orthogonalEdgeStyle;rounded=0;orthogonalLoop=1;jettySize=auto;html=1;" edge="1" parent="1" source="7ic36mAQvmnpquRYO7w3-5" target="7ic36mAQvmnpquRYO7w3-6">
          <mxGeometry relative="1" as="geometry" />
        </mxCell>
        <mxCell id="7ic36mAQvmnpquRYO7w3-5" value="Fill Up Form" style="rounded=1;whiteSpace=wrap;html=1;" vertex="1" parent="1">
          <mxGeometry x="340" y="240" width="110" height="60" as="geometry" />
        </mxCell>
        <mxCell id="7ic36mAQvmnpquRYO7w3-10" value="" style="edgeStyle=orthogonalEdgeStyle;rounded=0;orthogonalLoop=1;jettySize=auto;html=1;" edge="1" parent="1" source="7ic36mAQvmnpquRYO7w3-6" target="7ic36mAQvmnpquRYO7w3-8">
          <mxGeometry relative="1" as="geometry" />
        </mxCell>
        <mxCell id="7ic36mAQvmnpquRYO7w3-6" value="Choose Membership Plan" style="rounded=1;whiteSpace=wrap;html=1;" vertex="1" parent="1">
          <mxGeometry x="340" y="320" width="110" height="60" as="geometry" />
        </mxCell>
        <mxCell id="7ic36mAQvmnpquRYO7w3-36" style="edgeStyle=orthogonalEdgeStyle;rounded=0;orthogonalLoop=1;jettySize=auto;html=1;exitX=0.5;exitY=1;exitDx=0;exitDy=0;entryX=0.5;entryY=1;entryDx=0;entryDy=0;" edge="1" parent="1" source="7ic36mAQvmnpquRYO7w3-7" target="7ic36mAQvmnpquRYO7w3-14">
          <mxGeometry relative="1" as="geometry">
            <Array as="points">
              <mxPoint x="395" y="560" />
              <mxPoint x="560" y="560" />
              <mxPoint x="560" y="440" />
              <mxPoint x="585" y="440" />
            </Array>
          </mxGeometry>
        </mxCell>
        <mxCell id="7ic36mAQvmnpquRYO7w3-7" value="Pay Membership" style="rounded=1;whiteSpace=wrap;html=1;" vertex="1" parent="1">
          <mxGeometry x="340" y="480" width="110" height="60" as="geometry" />
        </mxCell>
        <mxCell id="7ic36mAQvmnpquRYO7w3-11" style="edgeStyle=orthogonalEdgeStyle;rounded=0;orthogonalLoop=1;jettySize=auto;html=1;exitX=1;exitY=0.5;exitDx=0;exitDy=0;entryX=0;entryY=0.5;entryDx=0;entryDy=0;" edge="1" parent="1" source="7ic36mAQvmnpquRYO7w3-8" target="rvdJIMKBWjh_Pe81FS9a-21">
          <mxGeometry relative="1" as="geometry">
            <Array as="points">
              <mxPoint x="490" y="431" />
              <mxPoint x="490" y="270" />
            </Array>
          </mxGeometry>
        </mxCell>
        <mxCell id="7ic36mAQvmnpquRYO7w3-17" value="" style="edgeStyle=orthogonalEdgeStyle;rounded=0;orthogonalLoop=1;jettySize=auto;html=1;" edge="1" parent="1" source="7ic36mAQvmnpquRYO7w3-8" target="7ic36mAQvmnpquRYO7w3-7">
          <mxGeometry relative="1" as="geometry" />
        </mxCell>
        <mxCell id="7ic36mAQvmnpquRYO7w3-8" value="Provide Credentials" style="rounded=1;whiteSpace=wrap;html=1;" vertex="1" parent="1">
          <mxGeometry x="340" y="401" width="110" height="60" as="geometry" />
        </mxCell>
        <mxCell id="7ic36mAQvmnpquRYO7w3-22" value="" style="edgeStyle=orthogonalEdgeStyle;rounded=0;orthogonalLoop=1;jettySize=auto;html=1;" edge="1" parent="1" source="7ic36mAQvmnpquRYO7w3-14" target="7ic36mAQvmnpquRYO7w3-15">
          <mxGeometry relative="1" as="geometry" />
        </mxCell>
        <mxCell id="7ic36mAQvmnpquRYO7w3-14" value="&lt;span style=&quot;color: rgb(0, 0, 0); font-family: Helvetica; font-size: 12px; font-style: normal; font-variant-ligatures: normal; font-variant-caps: normal; font-weight: 400; letter-spacing: normal; orphans: 2; text-align: center; text-indent: 0px; text-transform: none; widows: 2; word-spacing: 0px; -webkit-text-stroke-width: 0px; white-space: normal; background-color: rgb(251, 251, 251); text-decoration-thickness: initial; text-decoration-style: initial; text-decoration-color: initial; display: inline !important; float: none;&quot;&gt;Confirm&lt;/span&gt;&lt;div style=&quot;forced-color-adjust: none; color: rgb(0, 0, 0); font-family: Helvetica; font-size: 12px; font-style: normal; font-variant-ligatures: normal; font-variant-caps: normal; font-weight: 400; letter-spacing: normal; orphans: 2; text-align: center; text-indent: 0px; text-transform: none; widows: 2; word-spacing: 0px; -webkit-text-stroke-width: 0px; white-space: normal; background-color: rgb(251, 251, 251); text-decoration-thickness: initial; text-decoration-style: initial; text-decoration-color: initial;&quot;&gt;Membership Payment&lt;/div&gt;" style="rounded=1;whiteSpace=wrap;html=1;" vertex="1" parent="1">
          <mxGeometry x="530" y="357" width="110" height="60" as="geometry" />
        </mxCell>
        <mxCell id="7ic36mAQvmnpquRYO7w3-46" style="edgeStyle=orthogonalEdgeStyle;rounded=0;orthogonalLoop=1;jettySize=auto;html=1;exitX=0.5;exitY=1;exitDx=0;exitDy=0;entryX=1;entryY=0.5;entryDx=0;entryDy=0;" edge="1" parent="1" source="7ic36mAQvmnpquRYO7w3-15" target="7ic36mAQvmnpquRYO7w3-41">
          <mxGeometry relative="1" as="geometry">
            <Array as="points">
              <mxPoint x="715" y="450" />
              <mxPoint x="740" y="450" />
              <mxPoint x="740" y="766" />
            </Array>
          </mxGeometry>
        </mxCell>
        <mxCell id="7ic36mAQvmnpquRYO7w3-15" value="Provide Membership&lt;div&gt;ID&lt;/div&gt;" style="rounded=1;whiteSpace=wrap;html=1;" vertex="1" parent="1">
          <mxGeometry x="660" y="357" width="110" height="60" as="geometry" />
        </mxCell>
        <mxCell id="7ic36mAQvmnpquRYO7w3-32" style="edgeStyle=orthogonalEdgeStyle;rounded=0;orthogonalLoop=1;jettySize=auto;html=1;exitX=0;exitY=0.5;exitDx=0;exitDy=0;entryX=0.5;entryY=0;entryDx=0;entryDy=0;" edge="1" parent="1" source="7ic36mAQvmnpquRYO7w3-20" target="7ic36mAQvmnpquRYO7w3-26">
          <mxGeometry relative="1" as="geometry" />
        </mxCell>
        <mxCell id="7ic36mAQvmnpquRYO7w3-35" style="edgeStyle=orthogonalEdgeStyle;rounded=0;orthogonalLoop=1;jettySize=auto;html=1;exitX=1;exitY=0.5;exitDx=0;exitDy=0;" edge="1" parent="1" source="7ic36mAQvmnpquRYO7w3-20" target="7ic36mAQvmnpquRYO7w3-27">
          <mxGeometry relative="1" as="geometry" />
        </mxCell>
        <mxCell id="7ic36mAQvmnpquRYO7w3-20" value="" style="rhombus;whiteSpace=wrap;html=1;" vertex="1" parent="1">
          <mxGeometry x="180" y="240" width="74" height="70" as="geometry" />
        </mxCell>
        <mxCell id="7ic36mAQvmnpquRYO7w3-45" style="edgeStyle=orthogonalEdgeStyle;rounded=0;orthogonalLoop=1;jettySize=auto;html=1;exitX=0.5;exitY=1;exitDx=0;exitDy=0;entryX=0.5;entryY=0;entryDx=0;entryDy=0;" edge="1" parent="1" source="7ic36mAQvmnpquRYO7w3-23" target="7ic36mAQvmnpquRYO7w3-41">
          <mxGeometry relative="1" as="geometry">
            <Array as="points">
              <mxPoint x="157" y="730" />
              <mxPoint x="280" y="730" />
              <mxPoint x="280" y="710" />
              <mxPoint x="645" y="710" />
            </Array>
          </mxGeometry>
        </mxCell>
        <mxCell id="7ic36mAQvmnpquRYO7w3-23" value="Log In" style="rounded=1;whiteSpace=wrap;html=1;" vertex="1" parent="1">
          <mxGeometry x="102" y="660" width="110" height="60" as="geometry" />
        </mxCell>
        <mxCell id="7ic36mAQvmnpquRYO7w3-43" style="edgeStyle=orthogonalEdgeStyle;rounded=0;orthogonalLoop=1;jettySize=auto;html=1;exitX=0.5;exitY=1;exitDx=0;exitDy=0;entryX=0.5;entryY=0;entryDx=0;entryDy=0;" edge="1" parent="1" source="7ic36mAQvmnpquRYO7w3-24" target="7ic36mAQvmnpquRYO7w3-23">
          <mxGeometry relative="1" as="geometry">
            <Array as="points">
              <mxPoint x="645" y="680" />
              <mxPoint x="240" y="680" />
              <mxPoint x="240" y="640" />
              <mxPoint x="157" y="640" />
            </Array>
          </mxGeometry>
        </mxCell>
        <mxCell id="7ic36mAQvmnpquRYO7w3-24" value="Confirm ID" style="rounded=1;whiteSpace=wrap;html=1;" vertex="1" parent="1">
          <mxGeometry x="590" y="600" width="110" height="60" as="geometry" />
        </mxCell>
        <mxCell id="7ic36mAQvmnpquRYO7w3-42" style="edgeStyle=orthogonalEdgeStyle;rounded=0;orthogonalLoop=1;jettySize=auto;html=1;exitX=1;exitY=0.5;exitDx=0;exitDy=0;entryX=1;entryY=0.5;entryDx=0;entryDy=0;" edge="1" parent="1" source="7ic36mAQvmnpquRYO7w3-25" target="7ic36mAQvmnpquRYO7w3-23">
          <mxGeometry relative="1" as="geometry" />
        </mxCell>
        <mxCell id="7ic36mAQvmnpquRYO7w3-25" value="Confirm&lt;div&gt;Walk-in Payment&lt;/div&gt;" style="rounded=1;whiteSpace=wrap;html=1;" vertex="1" parent="1">
          <mxGeometry x="592.5" y="470" width="110" height="60" as="geometry" />
        </mxCell>
        <mxCell id="7ic36mAQvmnpquRYO7w3-38" style="edgeStyle=orthogonalEdgeStyle;rounded=0;orthogonalLoop=1;jettySize=auto;html=1;exitX=0.5;exitY=1;exitDx=0;exitDy=0;entryX=0;entryY=0.5;entryDx=0;entryDy=0;" edge="1" parent="1" source="7ic36mAQvmnpquRYO7w3-26" target="7ic36mAQvmnpquRYO7w3-24">
          <mxGeometry relative="1" as="geometry" />
        </mxCell>
        <mxCell id="7ic36mAQvmnpquRYO7w3-26" value="Provide Member ID" style="rounded=1;whiteSpace=wrap;html=1;" vertex="1" parent="1">
          <mxGeometry x="102" y="320" width="110" height="60" as="geometry" />
        </mxCell>
        <mxCell id="7ic36mAQvmnpquRYO7w3-37" style="edgeStyle=orthogonalEdgeStyle;rounded=0;orthogonalLoop=1;jettySize=auto;html=1;exitX=0.5;exitY=1;exitDx=0;exitDy=0;entryX=0.5;entryY=1;entryDx=0;entryDy=0;" edge="1" parent="1" source="7ic36mAQvmnpquRYO7w3-27" target="7ic36mAQvmnpquRYO7w3-25">
          <mxGeometry relative="1" as="geometry">
            <Array as="points">
              <mxPoint x="280" y="580" />
              <mxPoint x="648" y="580" />
            </Array>
          </mxGeometry>
        </mxCell>
        <mxCell id="7ic36mAQvmnpquRYO7w3-27" value="Pay Walk-in" style="rounded=1;whiteSpace=wrap;html=1;" vertex="1" parent="1">
          <mxGeometry x="224.5" y="320" width="110" height="60" as="geometry" />
        </mxCell>
        <mxCell id="7ic36mAQvmnpquRYO7w3-47" style="edgeStyle=orthogonalEdgeStyle;rounded=0;orthogonalLoop=1;jettySize=auto;html=1;exitX=0;exitY=0.5;exitDx=0;exitDy=0;entryX=1;entryY=0.5;entryDx=0;entryDy=0;" edge="1" parent="1" source="7ic36mAQvmnpquRYO7w3-41" target="7ic36mAQvmnpquRYO7w3-44">
          <mxGeometry relative="1" as="geometry" />
        </mxCell>
        <mxCell id="7ic36mAQvmnpquRYO7w3-41" value="Give Gym Access" style="rounded=1;whiteSpace=wrap;html=1;" vertex="1" parent="1">
          <mxGeometry x="590" y="736.25" width="110" height="60" as="geometry" />
        </mxCell>
        <mxCell id="7ic36mAQvmnpquRYO7w3-44" value="" style="ellipse;whiteSpace=wrap;html=1;aspect=fixed;" vertex="1" parent="1">
          <mxGeometry x="137.5" y="740" width="52.5" height="52.5" as="geometry" />
        </mxCell>
        <mxCell id="7ic36mAQvmnpquRYO7w3-48" value="" style="ellipse;whiteSpace=wrap;html=1;aspect=fixed;" vertex="1" parent="1">
          <mxGeometry x="142.5" y="745" width="42.5" height="42.5" as="geometry" />
        </mxCell>
      </root>
    </mxGraphModel>
  </diagram>
</mxfile>
